<svg width="8" height="6" viewBox="0 0 8 6" fill="none" xmlns="http://www.w3.org/2000/svg">
<path d="M4.768 5.07795C4.67415 5.19049 4.55671 5.28103 4.424 5.34316C4.29128 5.40529 4.14654 5.4375 4 5.4375C3.85346 5.4375 3.70871 5.40529 3.576 5.34316C3.44329 5.28103 3.32585 5.19049 3.232 5.07795L0.366998 1.63995C0.245389 1.49395 0.167894 1.31632 0.143588 1.12787C0.119282 0.939414 0.149171 0.747936 0.229754 0.575856C0.310338 0.403775 0.438282 0.258215 0.598602 0.156221C0.758923 0.0542274 0.944984 2.11589e-05 1.135 -5.00679e-05L6.865 -5.00679e-05C7.05501 2.11589e-05 7.24107 0.0542274 7.40139 0.156221C7.56171 0.258215 7.68966 0.403775 7.77024 0.575856C7.85083 0.747936 7.88071 0.939414 7.85641 1.12787C7.8321 1.31632 7.75461 1.49395 7.633 1.63995L4.768 5.07795Z" fill="white"/>
</svg>
