<svg xmlns="http://www.w3.org/2000/svg" width="20" height="20" viewBox="0 0 20 20">
    <g data-name="합치기 86" style="fill:none">
        <path d="M-10231-2367v-18h7.2l.982 2.7h9.82v9.3a6 6 0 0 1-6 6z" style="stroke:none" transform="translate(10232 2386)"/>
        <path d="M-10218.999-2368.5a4.506 4.506 0 0 0 4.501-4.5v-7.8h-9.371l-.983-2.701h-4.648v15.002h10.501m0 1.5H-10231v-18.002h7.2l.982 2.701h9.82v9.3a6 6 0 0 1-6.001 6z" style="fill:#fff;stroke:none" transform="translate(10232 2386)"/>
    </g>
    <path data-name="사각형 6473" transform="translate(1 8.5)" style="fill:#fff" d="M0 0h18v1.5H0z"/>
</svg>
