<svg xmlns="http://www.w3.org/2000/svg" width="150" height="24">
    <defs>
        <style>
            .cls-1{fill:#c4c0b7}
        </style>
    </defs>
    <g id="BI" transform="translate(-326.919 -269.292)">
        <path id="패스_57" data-name="패스 57" class="cls-1" d="M340.364 271.049c-1.875-.9-4.553-1.066-7.966-1.066h-5.479v23.423h4.614v-23.071h.865c3.314 0 6.632 1.65 6.632 6.382s-3.319 6.559-6.632 6.559v.175c3.414 0 6.091-.166 7.966-1.066 2.208-1.066 3.279-2.969 3.279-5.668s-1.071-4.6-3.279-5.668" transform="translate(0 -.274)"/>
        <path id="패스_58" data-name="패스 58" class="cls-1" d="M404.379 281.307a5.608 5.608 0 0 0 0-10.35c-1.971-.822-4.786-.974-8.375-.974h-5.479v23.422h4.614v-23.07H396c3.484 0 6.972 1.477 6.972 5.8a5.472 5.472 0 0 1-4.145 5.563 9.46 9.46 0 0 1-2.541.4l8.076 11.31h5.19l-8.128-11.383a11.652 11.652 0 0 0 2.95-.716" transform="translate(-36.949 -.275)"/>
        <path id="패스_59" data-name="패스 59" class="cls-1" d="M640.179 269.292a12.009 12.009 0 0 0-.432 24v-.176c-3.62-.382-6.488-5.543-6.488-11.824 0-6.531 3.1-11.649 6.921-11.649s6.92 5.118 6.92 11.649c0 6.281-2.868 11.442-6.488 11.824v.176a12.009 12.009 0 0 0-.432-24" transform="translate(-175.082)"/>
        <g id="그룹_35" data-name="그룹 35" transform="translate(408.638 269.292)">
            <path id="패스_60" data-name="패스 60" class="cls-1" d="M554.009 301.958a5.289 5.289 0 0 1 2.306 4.412 5.2 5.2 0 0 1-5.046 5.334v.173c2.058 0 6.685-.288 9.082-1.153v-8.939h-6.343z" transform="translate(-539.015 -287.878)"/>
            <path id="패스_61" data-name="패스 61" class="cls-1" d="M526.789 281.292c0-6.53 3.829-11.122 8.765-11.122a8.373 8.373 0 0 1 7.324 4.39h.173v-4.39a47.852 47.852 0 0 0-7.5-.878h-.548c-7.815 0-13.12 5.373-13.12 12a11.928 11.928 0 0 0 11.39 12v-.176c-3.621-.382-6.488-5.543-6.488-11.824" transform="translate(-521.887 -269.292)"/>
        </g>
        <g id="그룹_34" data-name="그룹 34" transform="translate(380.983 269.292)">
            <path id="패스_62" data-name="패스 62" class="cls-1" d="M460.128 284.621v-14.637h-4.614v14.637c0 6.216 4.224 8.98 9.083 9.075v-.176c-3.369-.293-4.469-4.384-4.469-8.9" transform="translate(-455.514 -269.984)"/>
            <path id="패스_63" data-name="패스 63" class="cls-1" d="M483.836 284.621c0 4.515-1.1 8.606-4.469 8.9v.176c4.859-.094 9.083-2.858 9.083-9.075v-14.638h-4.614z" transform="translate(-469.419 -269.984)"/>
        </g>
        <path id="사각형_161" data-name="사각형 161" class="cls-1" transform="translate(439.835 269.709)" d="M0 0h4.614v23.423H0z"/>
    </g>
</svg>
